<svg xmlns="http://www.w3.org/2000/svg" viewBox="0 0 211.46 185"><defs><style>.cls-1{fill:#3e6fb6;}.cls-2{fill:#215079;}</style></defs><g id="Layer_2" data-name="Layer 2"><g id="Layer_1-2" data-name="Layer 1"><path class="cls-1" d="M78.05,169.66a62.71,62.71,0,1,1,0-125.41,64.34,64.34,0,0,1,26.9,6l11.34-11.34a76.58,76.58,0,0,0-38.24-10,78,78,0,1,0,78.05,78.93l-15.57,4.23A62.58,62.58,0,0,1,78.05,169.66Z"/><path class="cls-1" d="M78.05,73.6a17,17,0,0,1,3.33.22L94.06,61.15a46.52,46.52,0,0,0-16-2.89,48.7,48.7,0,1,0,47.81,57.81l-17.35,4.67A33.3,33.3,0,1,1,78.05,73.6Z"/><path class="cls-2" d="M208.35,83.16,195.23,75.6l7.56-13.12a6.18,6.18,0,0,0-.44-6.45,5.65,5.65,0,0,0-6-2l-21.56,5.78a6.18,6.18,0,0,0-3.56,2.67l-7.79,13.57-59.81,16,43.81-43.81h16a5.55,5.55,0,0,0,4-1.78l15.79-15.78a5.83,5.83,0,0,0,1.33-6.23,5.57,5.57,0,0,0-5.34-3.56H164.1V5.78A5.78,5.78,0,0,0,160.54.44a5.44,5.44,0,0,0-6.22,1.34L138.53,17.57a5.56,5.56,0,0,0-1.78,4V37.36L85.16,89.17a18.38,18.38,0,0,0-7.11-1.34A19.13,19.13,0,1,0,97,109.62l70.49-18.9,13.78,8a7.56,7.56,0,0,0,4.45.67l21.57-5.79a5.69,5.69,0,0,0,4.22-4.89A6.34,6.34,0,0,0,208.35,83.16Z"/></g></g></svg>