<svg xmlns="http://www.w3.org/2000/svg" viewBox="0 0 122.01 122.03"><defs><style>.cls-1{fill:#215079;}.cls-2{fill:#3e6fb6;}</style></defs><g id="Layer_2" data-name="Layer 2"><g id="Layer_1-2" data-name="Layer 1"><path class="cls-1" d="M122,83.88A12.37,12.37,0,0,1,118.62,90a10.82,10.82,0,0,1-6.38,2.86V91.56c0-6.79-.12-13.58,0-20.37a46.56,46.56,0,0,0-1.74-13.85c-1.21-4.31-2.22-8.67-3.29-13a10.71,10.71,0,0,0-21-.06c-1.53,6.15-3.08,12.3-4.57,18.45a15.08,15.08,0,0,0-.42,3.41c0,8.46,0,16.92,0,25.38v1.42H11.15C4.58,92.93,0,88.35,0,81.77V28.6H122ZM44.33,50.05H67.08c1.9,0,3.81,0,5.71,0A3.55,3.55,0,0,0,76.11,45a3.7,3.7,0,0,0-3.7-2.08H16.2a5.67,5.67,0,0,0-.71,0,3.55,3.55,0,0,0-2.85,5.27,3.76,3.76,0,0,0,3.59,1.87Zm.1,7.14H23c-2.38,0-4.76,0-7.14,0a3.55,3.55,0,0,0-3.39,4.95,3.79,3.79,0,0,0,3.87,2.2h56a7.63,7.63,0,0,0,.83,0,3.56,3.56,0,0,0,2.92-5.16,3.71,3.71,0,0,0-3.64-2Zm-.24,21.45H64.67c2.7,0,5.4,0,8.1,0a3.55,3.55,0,0,0,3.41-4.94,3.79,3.79,0,0,0-3.86-2.21H15.75a3.58,3.58,0,1,0,0,7.15c.36,0,.72,0,1.07,0Z"/><path class="cls-2" d="M122,21.45H0V11A10.69,10.69,0,0,1,8.4.24,5.69,5.69,0,0,0,9.05,0H113a5.69,5.69,0,0,0,.65.24,10.64,10.64,0,0,1,7.59,6.37A25.14,25.14,0,0,1,122,9.06ZM21.68,10.75a3.68,3.68,0,0,0-3.55-3.6,3.67,3.67,0,0,0-3.59,3.55,3.67,3.67,0,0,0,3.54,3.59A3.67,3.67,0,0,0,21.68,10.75Zm14.3,0a3.58,3.58,0,0,0-7.15,0,3.58,3.58,0,0,0,7.15,0Zm10.7-3.56a3.69,3.69,0,0,0-3.55,3.6,3.57,3.57,0,0,0,7.14-.06A3.68,3.68,0,0,0,46.68,7.15Z"/><path class="cls-2" d="M88.5,69.16H105v31.3H88.5Z"/><path class="cls-2" d="M88.41,107.77h16.78a57.81,57.81,0,0,1-.42,8c-.76,4.1-4.92,6.77-9.11,6.25a8.39,8.39,0,0,1-7.25-8.16C88.4,111.83,88.41,109.85,88.41,107.77Z"/><path class="cls-2" d="M89.19,61.9l3.14-12.62c.32-1.27.6-2.54,1-3.79a3.47,3.47,0,0,1,3.44-2.59,3.32,3.32,0,0,1,3.38,2.48c1.44,5.47,2.79,11,4.19,16.52Z"/></g></g></svg>