<svg xmlns="http://www.w3.org/2000/svg" viewBox="0 0 152.62 133.47"><defs><style>.cls-1{fill:#3e6fb6;}.cls-2{fill:#215079;}</style></defs><g id="Layer_2" data-name="Layer 2"><g id="Layer_1-2" data-name="Layer 1"><path class="cls-1" d="M0,0C10.16.27,18,6.76,20.06,16.63a23.38,23.38,0,0,1,.42,4.73q0,17.3,0,34.57a3.35,3.35,0,0,0,1.05,2.62c3.72,3.78,7.39,7.61,10.93,11.27a34.37,34.37,0,0,1-.84-5.51,9.82,9.82,0,0,1,5.81-9.16,10.14,10.14,0,0,1,10.85.8,11.45,11.45,0,0,1,1.8,1.54Q60.54,68,71,78.56a3.07,3.07,0,0,1,.85,1.89q.06,26,0,52c0,.29,0,.59,0,1H29.71c.39-2.34.77-4.66,1.17-7s.92-4.87,1.23-7.33a3.34,3.34,0,0,0-.67-2Q17.79,97,4.07,76.89A22.36,22.36,0,0,1,.28,67.61,4.51,4.51,0,0,0,0,66.78Z"/><path class="cls-2" d="M122.82,133.47h-42v-1.66q0-25.49,0-51a3.18,3.18,0,0,1,1-2.47c7-7,13.92-14,20.91-21a10.65,10.65,0,0,1,18.15,5.11,11.91,11.91,0,0,1-.86,7.46c.3-.27.61-.53.89-.82,3.42-3.54,6.81-7.09,10.26-10.6a3.22,3.22,0,0,0,1-2.48c0-11.78-.1-23.55,0-35.32a20,20,0,0,1,10.45-18,19.49,19.49,0,0,1,10-2.64V1.64q0,31.08,0,62.15a22.51,22.51,0,0,1-4,13q-13.68,20.05-27.33,40.13a3.6,3.6,0,0,0-.68,3c.8,4,1.43,8.1,2.11,12.15A11.48,11.48,0,0,1,122.82,133.47Z"/></g></g></svg>