<svg xmlns="http://www.w3.org/2000/svg" viewBox="0 0 146.05 128.06"><defs><style>.cls-1{fill:#215079;}.cls-2{fill:#3e6fb6;}</style></defs><g id="Layer_2" data-name="Layer 2"><g id="Layer_1-2" data-name="Layer 1"><path class="cls-1" d="M40,120a3,3,0,0,0,0,6h17.2a8.1,8.1,0,0,1,0-6Z"/><path class="cls-1" d="M106.1,120H88a8.3,8.3,0,0,1,.56,3,8,8,0,0,1-.58,3H106.1a3,3,0,1,0,0-6Z"/><path class="cls-1" d="M80.22,118H79.06a1,1,0,0,1-1-1v-1.34a5,5,0,1,0-10,0V117a1,1,0,0,1-1,1H64.9a5,5,0,0,0,0,10H80.22a5,5,0,0,0,0-10Z"/><path class="cls-2" d="M138.78,0H7.25A7.25,7.25,0,0,0,0,7.27V23.65a7.23,7.23,0,0,0,7.25,7.24H19.06v4.45H7.24A7.25,7.25,0,0,0,0,42.61V59a7.23,7.23,0,0,0,7.24,7.24H19.06v4.45H7.24A7.25,7.25,0,0,0,0,78V94.33a7.23,7.23,0,0,0,7.24,7.25H70v6.34a8,8,0,0,1,3-.58,8.3,8.3,0,0,1,3,.56v-6.32h62.74a7.25,7.25,0,0,0,7.27-7.25V78a7.28,7.28,0,0,0-7.27-7.28H127V66.24h11.8A7.25,7.25,0,0,0,146.05,59V42.62a7.28,7.28,0,0,0-7.27-7.28H127V30.9h11.8a7.25,7.25,0,0,0,7.27-7.25V7.28A7.28,7.28,0,0,0,138.78,0ZM13.09,20.36a4.92,4.92,0,1,1,0-9.83H83.53a4.92,4.92,0,1,1,0,9.83Zm0,35.34a4.92,4.92,0,1,1,0-9.83H83.53a4.92,4.92,0,1,1,0,9.83ZM85.3,91.05H14.86a4.92,4.92,0,0,1,0-9.84H85.3a4.92,4.92,0,0,1,0,9.84Zm21.76-2a2.1,2.1,0,0,1-2.1,2.11H99.12A2.09,2.09,0,0,1,97,89.05V83.21a2.11,2.11,0,0,1,2.11-2.11H105a2.12,2.12,0,0,1,2.1,2.11Zm14.52,0a2.1,2.1,0,0,1-2.1,2.11h-5.84a2.09,2.09,0,0,1-2.11-2.11V83.21a2.11,2.11,0,0,1,2.11-2.11h5.84a2.12,2.12,0,0,1,2.1,2.11Zm6.58-8H134a2.13,2.13,0,0,1,2.11,2.11v5.84A2.11,2.11,0,0,1,134,91.16h-5.84a2.09,2.09,0,0,1-2.11-2.11V83.21A2.11,2.11,0,0,1,128.16,81.1Z"/></g></g></svg>