<svg xmlns="http://www.w3.org/2000/svg" viewBox="0 0 106.85 130.47"><defs><style>.cls-1{fill:#3e6fb6;}.cls-2{fill:#215079;}.cls-3{fill:#fff;}</style></defs><g id="Layer_2" data-name="Layer 2"><g id="Layer_1-2" data-name="Layer 1"><path class="cls-1" d="M0,0V101.35H31.86l21.56,29.12L75,101.35h31.87V0Z"/><rect class="cls-2" x="45.8" y="76.55" width="13.73" height="12.36"/><path class="cls-3" d="M62.69,58.83c-3.29,2.61-3.29,2.88-3.29,4.39v5.22H45.66V63.22c0-7.69,3.71-11.39,8.38-15.1,2.61-2.2,7.55-6.18,7.55-9.62,0-5.49-3.15-6.73-7.82-6.73-8.38,0-8.66,5.77-8.66,6.46v3.43H31.38V38.23c0-7.83,6-20.19,22.52-20.19C69.83,18,75.47,28.62,75.47,38.5S67.09,55.12,62.69,58.83Z"/></g></g></svg>