<svg xmlns="http://www.w3.org/2000/svg" viewBox="0 0 452.9 75.1"><defs><style>.cls-1{fill:#fff;}</style></defs><g id="Layer_2" data-name="Layer 2"><g id="Layer_1-2" data-name="Layer 1"><path class="cls-1" d="M62.6,68.57v-.36h2.55v.36H64.08V71.4h-.42V68.57Z"/><path class="cls-1" d="M66.53,68.22l1,2.68,1-2.68h.58v3.19h-.4V68.76h0l-1,2.65h-.36l-1-2.65h0v2.65H66V68.22Z"/><path class="cls-1" d="M162.4,24.39h17.66a5,5,0,1,0,0-9.91H162.4c-14.18,0-23.64,9.91-23.64,23.08s9.44,23.07,23.64,23.07h17.65a5,5,0,0,0,0-9.9H162.4c-6.81,0-12-4.07-13.62-9.44h22.31a4.71,4.71,0,1,0,0-9.42H149.57A14,14,0,0,1,162.4,24.39ZM234,14.45a5,5,0,0,0-5,4.93h0V37.06c0,8.33-6.07,14.18-13.16,14.18S202.7,45.39,202.7,37.06V19.4a5,5,0,0,0-9.91,0h0V37.06c0,14.18,9.9,23.64,23.07,23.64s23.07-9.46,23.07-23.64V19.42a5,5,0,0,0-4.9-5Zm32.2.06H248.59a5,5,0,0,0,0,9.9H266.2c8.33,0,14.18,6.07,14.18,13.16s-5.82,13.17-14.18,13.17H248.57a5,5,0,0,0,0,9.92H266.2c14.18,0,23.64-9.91,23.64-23.08s-9.43-23.07-23.64-23.07Zm-154.4-.07c-13.16,0-23.08,9.46-23.08,23.64V55.73a5,5,0,0,0,9.92,0h0V38.09c0-8.33,6.07-14.19,13.16-14.19S125,29.76,125,38.09V55.75a5,5,0,0,0,9.92,0h0V38.09C134.9,23.89,125,14.44,111.83,14.44ZM447.25,50.75H429.59c-8.34,0-14.18-6.08-14.18-13.17s5.84-13.17,14.18-13.17h17.64a5,5,0,1,0,0-9.91H429.59C415.41,14.5,406,24.41,406,37.58s9.46,23.07,23.64,23.07h17.63a5,5,0,0,0,0-9.9ZM355,26.54c.19-2.89,1.36-4.05,5.51-4.05h17.81a4,4,0,1,0,0-8.07H361.91c-10.13,0-15.83,4.35-15.83,12.56,0,16,29.26,12.75,29.26,21.25,0,2.9-1.55,4.44-5.51,4.44H349.7a4,4,0,1,0,0,8.06h20.13c8.21,0,14.4-4.14,14.4-12.94C384.2,31.18,355,34.56,355,26.54Zm40.91-12.17a4.51,4.51,0,0,0-4.51,4.49h0V56.21h0a4.51,4.51,0,0,0,9,0h0V18.87h0A4.52,4.52,0,0,0,395.87,14.37Zm-78.55,10H335a5,5,0,1,0,0-9.91H317.32c-14.19,0-23.64,9.91-23.64,23.08s9.45,23.07,23.64,23.07H335a5,5,0,0,0,0-9.9H317.33c-6.81,0-12-4.07-13.63-9.44H326a4.71,4.71,0,1,0,0-9.42H304.49a14,14,0,0,1,12.83-7.46Z"/><path class="cls-1" d="M37.55,0A37.55,37.55,0,1,0,75.1,37.55,37.55,37.55,0,0,0,37.55,0ZM61.42,56.07v.22a5.13,5.13,0,0,1-10.25,0V38.08c0-8.62-6.29-14.67-13.62-14.67S23.94,29.46,23.94,38.08V56.35a5.13,5.13,0,0,1-10.26,0V38.07c0-14.67,10.25-24.45,23.86-24.45S61.42,23.4,61.42,38.07Z"/></g></g></svg>